<svg xmlns="http://www.w3.org/2000/svg" xmlns:xlink="http://www.w3.org/1999/xlink" viewBox="0 0 422.73 567.05"><defs><style>.cls-1{fill:none;}.cls-2{fill:#2e6fb7;}.cls-3{fill:#101042;}.cls-4{clip-path:url(#clip-path);}.cls-5{fill:#f6f5ba;}</style><clipPath id="clip-path"><rect class="cls-1" x="56.82" y="173.86" width="316.36" height="317.05"/></clipPath></defs><g id="Layer_2" data-name="Layer 2"><g id="Layer_1-2" data-name="Layer 1"><rect class="cls-2" width="422.73" height="567.05" rx="20.45"/><rect class="cls-3" x="35.23" y="36.36" width="363.64" height="80.68" rx="17.05"/><rect class="cls-3" x="35.23" y="144.32" width="363.64" height="395.45" rx="17.05"/><g class="cls-4"><rect class="cls-5" x="56.82" y="173.86" width="71.59" height="71.59" rx="20.45"/><rect class="cls-5" x="138.41" y="173.86" width="71.59" height="71.59" rx="20.45"/><rect class="cls-5" x="220" y="173.86" width="71.59" height="71.59" rx="20.45"/><rect class="cls-5" x="301.59" y="173.86" width="71.59" height="71.59" rx="20.45"/><rect class="cls-5" x="56.82" y="255.45" width="71.59" height="71.59" rx="20.45"/><rect class="cls-5" x="138.41" y="255.45" width="71.59" height="71.59" rx="20.45"/><rect class="cls-5" x="220" y="255.45" width="71.59" height="71.59" rx="20.45"/><rect class="cls-5" x="301.59" y="255.45" width="71.59" height="71.59" rx="20.45"/><rect class="cls-5" x="56.82" y="337.05" width="71.59" height="71.59" rx="20.45"/><rect class="cls-5" x="138.41" y="337.05" width="71.59" height="71.59" rx="20.45"/><rect class="cls-5" x="220" y="337.05" width="71.59" height="71.59" rx="20.45"/><rect class="cls-5" x="301.59" y="337.05" width="71.59" height="71.59" rx="20.45"/><rect class="cls-5" x="56.82" y="418.64" width="71.59" height="71.59" rx="20.45"/><rect class="cls-5" x="138.41" y="418.64" width="71.59" height="71.59" rx="20.45"/><rect class="cls-5" x="220" y="418.64" width="71.59" height="71.59" rx="20.45"/><rect class="cls-5" x="301.59" y="418.64" width="71.59" height="71.59" rx="20.45"/></g></g></g></svg>