<?xml version="1.0" standalone="no"?>
<!DOCTYPE svg PUBLIC "-//W3C//DTD SVG 20010904//EN"
 "http://www.w3.org/TR/2001/REC-SVG-20010904/DTD/svg10.dtd">
<svg version="1.0" xmlns="http://www.w3.org/2000/svg"
 width="1134.000000pt" height="1134.000000pt" viewBox="0 0 1134.000000 1134.000000"
 preserveAspectRatio="xMidYMid meet">
<metadata>
Created by potrace 1.14, written by Peter Selinger 2001-2017
</metadata>
<g transform="translate(0.000000,1134.000000) scale(0.100000,-0.100000)"
fill="#000000" stroke="none">
<path d="M1759 11322 c-149 -39 -258 -151 -293 -302 -14 -58 -16 -643 -16
-5348 0 -5885 -7 -5362 69 -5479 61 -95 142 -152 251 -177 58 -14 494 -16
3905 -16 4112 0 3903 -2 3998 46 102 52 186 161 211 274 14 62 16 588 16 5350
0 4762 -2 5288 -16 5350 -25 113 -109 222 -211 274 -95 48 114 46 -4003 45
-3595 0 -3849 -1 -3911 -17z m2021 -3499 c122 -60 206 -172 231 -307 6 -37 9
-187 7 -409 -3 -340 -4 -354 -26 -410 -44 -109 -130 -194 -241 -239 -54 -22
-69 -23 -413 -26 -224 -2 -379 1 -415 8 -131 24 -239 107 -296 228 l-32 67 0
415 0 415 27 57 c47 100 135 180 243 219 46 17 84 19 450 16 l400 -2 65 -32z
m1578 22 c81 -24 170 -91 219 -164 67 -101 73 -144 73 -529 0 -181 -5 -353
-10 -382 -31 -164 -158 -295 -318 -329 -68 -14 -699 -15 -773 -1 -126 24 -236
110 -292 227 l-32 68 0 415 0 415 27 55 c52 105 137 183 241 220 47 17 89 19
433 19 314 1 389 -2 432 -14z m1684 -22 c112 -53 191 -148 222 -268 13 -48 16
-124 16 -402 0 -212 -4 -362 -11 -395 -33 -155 -161 -284 -317 -317 -86 -18
-711 -15 -792 5 -120 28 -215 105 -272 222 l-33 67 0 410 0 410 31 65 c52 110
122 175 234 218 53 21 69 21 455 19 l400 -2 67 -32z m1628 1 c82 -40 136 -87
177 -155 58 -98 63 -136 63 -516 0 -212 -4 -362 -11 -395 -33 -155 -161 -284
-317 -317 -83 -17 -711 -15 -788 4 -141 33 -253 137 -294 274 -20 64 -21 89
-18 452 l3 384 31 65 c53 112 127 180 240 219 56 20 78 21 454 18 l395 -2 65
-31z m-4949 -1610 c149 -44 259 -168 289 -324 13 -69 13 -681 0 -751 -25 -132
-112 -242 -238 -302 l-67 -32 -405 0 -405 0 -59 28 c-117 54 -199 146 -231
259 -14 48 -15 112 -13 450 l3 393 28 57 c54 110 164 201 273 227 22 5 204 9
405 10 309 1 374 -1 420 -15z m1672 -12 c119 -49 222 -176 246 -307 15 -78 15
-682 0 -760 -29 -157 -155 -289 -310 -324 -25 -6 -197 -11 -400 -11 -328 0
-362 2 -421 20 -119 37 -200 109 -255 226 l-28 59 -3 395 c-3 385 -2 396 19
455 49 134 155 233 286 264 21 5 211 9 423 8 378 -2 386 -2 443 -25z m1600 8
c113 -35 210 -125 259 -240 23 -54 23 -59 23 -455 l0 -400 -33 -71 c-55 -117
-162 -206 -282 -233 -26 -6 -194 -11 -402 -11 -322 0 -362 2 -417 19 -121 37
-204 110 -258 227 l-28 59 0 410 0 410 32 67 c52 111 160 201 270 227 21 5
203 9 404 10 341 1 371 0 432 -19z m1639 2 c103 -35 207 -136 252 -245 20 -49
21 -71 24 -425 3 -406 -1 -447 -54 -537 -32 -55 -95 -119 -148 -150 -86 -50
-132 -55 -517 -55 -329 0 -362 2 -422 20 -120 37 -213 126 -264 250 -16 41
-18 81 -18 450 l0 405 32 67 c52 111 159 200 270 227 59 14 800 8 845 -7z
m-4860 -1649 c126 -60 213 -170 238 -302 5 -29 10 -199 10 -376 0 -177 -5
-347 -10 -376 -25 -133 -128 -263 -247 -311 -57 -23 -66 -23 -445 -26 -371 -3
-389 -2 -449 18 -111 38 -193 110 -247 220 l-27 55 -3 393 c-3 439 -1 461 63
558 53 81 122 132 225 166 50 16 93 17 440 15 l385 -2 67 -32z m1630 0 c126
-60 213 -170 238 -302 14 -75 13 -696 -1 -763 -31 -147 -139 -266 -278 -308
-64 -20 -88 -21 -452 -18 l-384 3 -65 31 c-112 53 -177 124 -219 239 -21 59
-22 70 -19 455 l3 395 31 65 c40 82 87 136 155 177 100 60 123 62 544 60 l380
-2 67 -32z m1556 27 c151 -35 279 -166 311 -318 14 -68 14 -720 0 -781 -28
-123 -110 -226 -226 -283 l-68 -33 -410 0 -411 0 -76 37 c-91 45 -147 103
-191 196 l-32 67 0 410 0 410 31 65 c40 82 87 136 155 177 97 58 127 62 519
62 200 0 374 -4 398 -9z m1632 -1 c103 -23 211 -104 265 -196 50 -84 55 -129
55 -508 0 -285 -3 -362 -16 -410 -30 -119 -107 -210 -222 -267 l-67 -33 -410
0 -410 0 -67 32 c-88 41 -160 113 -201 201 l-32 67 -3 380 c-4 432 0 461 70
565 55 83 133 138 230 164 65 18 735 22 808 5z m-4837 -1647 c108 -44 194
-131 241 -246 19 -48 21 -74 24 -400 2 -229 0 -372 -8 -414 -23 -134 -105
-244 -228 -304 l-67 -33 -415 0 -415 0 -66 32 c-80 39 -159 120 -197 200 l-27
58 0 415 0 415 32 68 c54 113 165 202 283 226 25 5 212 9 415 8 361 -2 371 -3
428 -25z m1558 18 c167 -31 297 -161 329 -330 5 -29 10 -201 10 -382 0 -382
-7 -431 -71 -528 -47 -69 -95 -110 -176 -148 l-58 -27 -415 0 -415 0 -58 27
c-76 36 -169 129 -205 205 l-27 58 0 415 0 415 27 58 c37 79 77 127 143 173
97 67 142 73 526 73 186 1 360 -3 390 -9z m1634 -1 c157 -29 278 -144 320
-304 22 -87 22 -724 0 -810 -32 -123 -106 -212 -225 -269 l-65 -31 -415 0
-415 0 -56 28 c-111 54 -192 148 -224 259 -14 49 -16 109 -13 445 l3 388 32
66 c56 114 156 195 278 225 65 16 696 19 780 3z m1631 0 c158 -29 289 -158
323 -317 7 -33 11 -180 11 -395 0 -380 -5 -418 -63 -516 -41 -68 -95 -115
-177 -155 l-65 -31 -415 0 -415 0 -58 29 c-89 44 -151 106 -194 194 l-38 76 0
405 c0 402 0 407 23 464 46 112 164 212 287 243 65 16 696 19 781 3z"/>
</g>
</svg>
